<svg width="30" height="14" viewBox="0 0 30 14" fill="none" xmlns="http://www.w3.org/2000/svg">
<path d="M19.6377 7.81543C19.8701 7.81554 19.9635 7.91045 19.917 8.09863L19.8086 8.5625C19.7663 8.75068 19.6289 8.84463 19.3964 8.84473H15.124L14.3945 11.9707H19.2373C19.4699 11.9707 19.563 12.0648 19.5166 12.2529L19.4091 12.7178C19.3668 12.906 19.2287 13 18.9961 13H13.2519C13.0405 13 12.9627 12.8851 13.0175 12.6553L13.6015 10.1465L15.9336 7.81543H19.6377Z" fill="black"/>
<path d="M24.1816 4C24.4819 4 24.6708 4.1044 24.747 4.31348L27.2089 10.9668H27.2343C27.2724 10.7745 27.3089 10.607 27.3427 10.4648L28.7646 4.34473C28.8197 4.11503 28.9528 4.00012 29.164 4H29.748C29.9594 4 30.0381 4.11493 29.9834 4.34473L28.0468 12.6553C27.9918 12.885 27.8588 13 27.6474 13H27.1269C26.8308 13 26.6446 12.8955 26.5683 12.6865L23.9472 5.62598H23.9218C23.888 5.80992 23.8541 5.97741 23.8203 6.12793L22.2968 12.6553C22.2418 12.8851 22.1079 13 21.8964 13H21.3125C21.1014 12.9998 21.0233 12.8849 21.0781 12.6553L23.0136 4.34473C23.0687 4.11484 23.2026 4 23.414 4H24.1816Z" fill="black"/>
<path d="M20.9062 4C21.1389 4 21.2345 4.09407 21.1923 4.28223L21.0839 4.74707C21.0374 4.93502 20.8983 5.02917 20.666 5.0293H18.7197L19.749 4H20.9062Z" fill="black"/>
<path d="M11.5093 0C11.7103 4.94074e-05 11.7851 0.112735 11.7329 0.337891L10.6157 5.26855C10.3582 6.41603 10.3481 7.16611 10.5855 7.51855C10.8229 7.86692 11.3063 8.04102 12.0347 8.04102C12.0402 8.04101 12.0458 8.04007 12.0513 8.04004L11.1597 8.93164C10.6405 8.82265 10.1847 8.58112 9.79446 8.20117C9.24726 7.66841 9.1209 6.75213 9.41457 5.45312L10.5738 0.337891C10.6261 0.112727 10.7526 7.69481e-05 10.9536 0H11.5093Z" fill="black"/>
<path fill-rule="evenodd" clip-rule="evenodd" d="M4.97219 0C5.98617 2.51559e-05 6.71046 0.221465 7.14504 0.664062C7.5796 1.10667 7.79738 1.66032 7.79738 2.32422C7.79726 3.00007 7.51928 3.56125 6.96438 4.00781C6.41308 4.45453 5.74236 4.71079 4.95363 4.77637L4.94778 4.78906C5.28982 5.10053 5.5094 5.34428 5.60598 5.52051C5.70249 5.69254 5.79485 5.90352 5.88332 6.15332L6.67434 8.41016C6.77073 8.68039 6.70432 8.81539 6.47512 8.81543H5.9136C5.7206 8.81541 5.5978 8.73578 5.54543 8.57617L4.84524 6.38086C4.74863 6.07767 4.55578 5.77213 4.26613 5.46484C3.98042 5.15337 3.56157 4.99805 3.01028 4.99805H1.95949L1.17531 8.47754C1.12303 8.70274 0.996367 8.81527 0.795432 8.81543H0.239768C0.0385986 8.81543 -0.0361239 8.70287 0.0161348 8.47754L1.85696 0.337891C1.90929 0.112563 2.03665 0 2.23781 0H4.97219ZM2.18899 3.99023H4.05422C4.77856 3.99023 5.38652 3.8625 5.87746 3.6084C6.37231 3.35432 6.61961 2.96315 6.61965 2.43457C6.61965 1.84441 6.43885 1.45865 6.07668 1.27832C5.71855 1.09803 5.2452 1.00781 4.65774 1.00781H2.86574L2.18899 3.99023Z" fill="black"/>
<path d="M16.7603 0C16.9614 0 17.0361 0.112616 16.9839 0.337891L16.1714 3.91992L14.6704 5.4209C14.6825 5.37072 14.6969 5.32035 14.7085 5.26855L15.8247 0.337891C15.8771 0.112581 16.0044 0 16.2056 0H16.7603Z" fill="black"/>
<path d="M20.3139 1L21.021 1.70711L9.70727 13.0208L9.00016 12.3137L20.3139 1Z" fill="black"/>
</svg>
